<svg width="16" height="16" viewBox="0 0 16 16" fill="none" xmlns="http://www.w3.org/2000/svg">
<path d="M2.5 10.75V5.28696C2.5 3.77296 3.72375 2.54373 5.23773 2.53696L10.7378 2.51237C12.2614 2.50556 13.5001 3.73877 13.5001 5.26237V10.75C13.5001 12.2688 12.2689 13.5 10.7501 13.5H5.25003C3.73123 13.5 2.5 12.2688 2.5 10.75Z" stroke="currentColor" stroke-width="1.37501" stroke-linecap="square" stroke-linejoin="round"/>
<path d="M8.99179 7.07849C9.60324 6.98097 10.4875 6.31784 10.4875 5.80099C10.4875 5.64496 10.3652 5.53769 10.1865 5.53769C9.84782 5.53769 9.27399 6.06429 8.99179 7.07849ZM6.1603 9.64324C5.36071 9.64324 5.29486 10.4624 6.09445 10.4624C6.45191 10.4624 6.88463 10.3161 7.1104 10.0528C6.78116 9.76026 6.50836 9.64324 6.1603 9.64324ZM11.2494 9.29217C11.2965 10.6672 10.6192 11.4376 9.47154 11.4376C8.79424 11.4376 8.45559 11.1743 7.73126 10.6867C7.35498 11.1158 6.64005 11.4376 6.04742 11.4376C4.00611 11.4376 4.09078 8.75581 6.16971 8.75581C6.60243 8.75581 6.9693 8.87284 7.43964 9.17515L7.75007 8.05368C6.47073 7.69286 5.83106 6.67866 6.46132 5.22563H7.47727C6.91285 6.19107 7.29854 6.99072 8.01347 7.07849C8.39915 5.66446 9.22696 4.5625 10.3276 4.5625C10.9484 4.5625 11.4376 4.98183 11.4376 5.74248C11.4376 6.96147 9.89485 7.95616 8.72839 8.05368L8.24864 9.79927C8.79424 10.4526 10.3088 11.0865 10.3088 9.29217H11.2494Z" fill="currentColor"/>
</svg>
