<svg width="24" height="24" viewBox="0 0 24 24" fill="none" xmlns="http://www.w3.org/2000/svg">
<path d="M4 15.9998V8.05372C4 5.85156 5.77998 4.06361 7.98212 4.05376L15.9821 4.01799C18.1982 4.00809 20 5.80183 20 8.01796V15.9998C20 18.2089 18.2091 19.9998 16 19.9998H8C5.79086 19.9998 4 18.2089 4 15.9998Z" stroke="currentColor" stroke-width="2" stroke-linecap="square" stroke-linejoin="round"/>
<path d="M13.4425 10.6596C14.3319 10.5177 15.6181 9.55319 15.6181 8.80142C15.6181 8.57447 15.4402 8.41844 15.1802 8.41844C14.6876 8.41844 13.853 9.1844 13.4425 10.6596ZM9.32404 14.3901C8.16102 14.3901 8.06524 15.5816 9.22827 15.5816C9.74821 15.5816 10.3776 15.3688 10.706 14.9858C10.2271 14.5603 9.8303 14.3901 9.32404 14.3901ZM16.7263 13.8794C16.7948 15.8794 15.8096 17 14.1403 17C13.1552 17 12.6626 16.617 11.609 15.9078C11.0617 16.5319 10.0219 17 9.15985 17C6.19072 17 6.31386 13.0993 9.33773 13.0993C9.96713 13.0993 10.5008 13.2695 11.1849 13.7092L11.6364 12.078C9.77557 11.5532 8.84515 10.078 9.76189 7.96454H11.2396C10.4187 9.36879 10.9796 10.5319 12.0195 10.6596C12.5805 8.60284 13.7846 7 15.3854 7C16.2885 7 17 7.60993 17 8.71631C17 10.4894 14.756 11.9362 13.0594 12.078L12.3616 14.617C13.1552 15.5674 15.3581 16.4894 15.3581 13.8794H16.7263Z" fill="currentColor"/>
</svg>
