<svg width="30" height="21" viewBox="0 0 30 21" fill="none" xmlns="http://www.w3.org/2000/svg">
  <path
    d="M23.5366 7.89177C23.4109 6.59579 22.2796 6.16726 20.8512 6.05124L20.8517 4.25264L19.7451 4.25879L19.7447 6.00998C19.4538 6.0116 19.1564 6.01891 18.861 6.02635L18.8616 4.26356L17.7556 4.26956L17.7548 6.06764C17.5152 6.07379 17.2799 6.07948 17.0505 6.08088L17.0503 6.0753L15.5241 6.0831L15.5241 7.25237C15.5241 7.25237 16.3413 7.2325 16.3277 7.24747C16.7759 7.24516 16.9217 7.5018 16.9641 7.72373L16.9637 9.77271C16.9946 9.77271 17.035 9.77376 17.0806 9.7797C17.0438 9.77995 17.0043 9.77992 16.9637 9.78049L16.9627 12.6509C16.943 12.7906 16.8601 13.0135 16.5469 13.0158C16.5611 13.0281 15.7425 13.02 15.7425 13.02L15.5223 14.3286L16.9624 14.3207C17.2303 14.3196 17.494 14.3226 17.7529 14.3228L17.7529 16.1419L18.8583 16.1361L18.8587 14.3362C19.1622 14.3408 19.4559 14.3416 19.7427 14.3397L19.7418 16.1313L20.8483 16.1252L20.8491 14.3093C22.7096 14.1936 24.0118 13.7228 24.1739 11.9935C24.3048 10.601 23.6432 9.9836 22.5872 9.73846C23.2289 9.41175 23.6301 8.84008 23.5366 7.89177ZM21.9874 11.7898C21.9877 13.1492 19.635 13.0074 18.885 13.0122L18.8859 10.602C19.6361 10.5981 21.9879 10.3719 21.9874 11.7898ZM21.4736 8.39221C21.4729 9.62899 19.5108 9.49536 18.8862 9.49882L18.8868 7.31291C19.5115 7.30946 21.4738 7.10222 21.4736 8.39221Z"
    fill="currentColor" />
  <path fill-rule="evenodd" clip-rule="evenodd"
    d="M19.9999 1.04403C14.9716 1.04403 10.8954 5.12027 10.8954 10.1486C10.8954 15.1769 14.9716 19.2531 19.9999 19.2531C25.0282 19.2531 29.1045 15.1769 29.1045 10.1486C29.1045 5.12027 25.0282 1.04403 19.9999 1.04403ZM9.99988 10.1486C9.99988 4.62568 14.4771 0.148499 19.9999 0.148499C25.5228 0.148499 30 4.62568 30 10.1486C30 15.6715 25.5228 20.1486 19.9999 20.1486C14.4771 20.1486 9.99988 15.6715 9.99988 10.1486Z"
    fill="currentColor" />
  <g clip-path="url(#clip0_1862_10558)">
    <mask id="mask0_1862_10558" style="mask-type:alpha" maskUnits="userSpaceOnUse" x="0" y="0"
      width="21" height="21">
      <circle cx="10.1493" cy="10.1493" r="10.1493" fill="black" />
    </mask>
    <g mask="url(#mask0_1862_10558)">
      <path fill-rule="evenodd" clip-rule="evenodd"
        d="M20.0001 -8.80564C9.5313 -8.80564 1.0447 -0.319041 1.0447 10.1497C1.0447 20.6185 9.5313 29.1051 20.0001 29.1051C30.4688 29.1051 38.9554 20.6185 38.9554 10.1497C38.9554 -0.319041 30.4688 -8.80564 20.0001 -8.80564ZM0.14917 10.1497C0.14917 -0.813627 9.03671 -9.70117 20.0001 -9.70117C30.9634 -9.70117 39.8509 -0.813627 39.8509 10.1497C39.8509 21.1131 30.9634 30.0006 20.0001 30.0006C9.03671 30.0006 0.14917 21.1131 0.14917 10.1497ZM20.0001 -7.01459C10.5205 -7.01459 2.83576 0.670133 2.83576 10.1497C2.83576 19.6293 10.5205 27.314 20.0001 27.314C29.4796 27.314 37.1644 19.6293 37.1644 10.1497C37.1644 0.670133 29.4796 -7.01459 20.0001 -7.01459ZM1.94023 10.1497C1.94023 0.175547 10.0259 -7.91011 20.0001 -7.91011C29.9742 -7.91011 38.0599 0.175547 38.0599 10.1497C38.0599 20.1239 29.9742 28.2095 20.0001 28.2095C10.0259 28.2095 1.94023 20.1239 1.94023 10.1497ZM20.0001 -4.92502C11.6745 -4.92502 4.92532 1.82417 4.92532 10.1497C4.92532 18.4753 11.6745 25.2244 20.0001 25.2244C28.3256 25.2244 35.0748 18.4753 35.0748 10.1497C35.0748 1.82417 28.3256 -4.92502 20.0001 -4.92502ZM4.02979 10.1497C4.02979 1.32958 11.1799 -5.82055 20.0001 -5.82055C28.8202 -5.82055 35.9703 1.32958 35.9703 10.1497C35.9703 18.9698 28.8202 26.12 20.0001 26.12C11.1799 26.12 4.02979 18.9698 4.02979 10.1497ZM20.0001 -2.83545C12.8285 -2.83545 7.01489 2.9782 7.01489 10.1497C7.01489 17.3212 12.8285 23.1349 20.0001 23.1349C27.1716 23.1349 32.9852 17.3212 32.9852 10.1497C32.9852 2.9782 27.1716 -2.83545 20.0001 -2.83545ZM6.11936 10.1497C6.11936 2.48362 12.334 -3.73098 20.0001 -3.73098C27.6662 -3.73098 33.8808 2.48362 33.8808 10.1497C33.8808 17.8158 27.6662 24.0304 20.0001 24.0304C12.334 24.0304 6.11936 17.8158 6.11936 10.1497ZM20.0001 -1.04439C13.8177 -1.04439 8.80595 3.96738 8.80595 10.1497C8.80595 16.3321 13.8177 21.3438 20.0001 21.3438C26.1824 21.3438 31.1942 16.3321 31.1942 10.1497C31.1942 3.96738 26.1824 -1.04439 20.0001 -1.04439ZM7.91042 10.1497C7.91042 3.47279 13.3231 -1.93992 20.0001 -1.93992C26.677 -1.93992 32.0897 3.47279 32.0897 10.1497C32.0897 16.8266 26.677 22.2394 20.0001 22.2394C13.3231 22.2394 7.91042 16.8266 7.91042 10.1497Z"
        fill="currentColor" />
    </g>
  </g>
  <defs>
    <clipPath id="clip0_1862_10558">
      <rect width="20.2986" height="20.2986" fill="white" />
    </clipPath>
  </defs>
</svg>

