<svg xmlns="http://www.w3.org/2000/svg" width="24" height="24" fill="none" viewBox="0 0 24 24">
  <path
    stroke="currentColor"
    stroke-linecap="round"
    stroke-linejoin="round"
    stroke-width="2"
    d="M5.5 12V8C5.5 7.44772 5.94772 7 6.5 7H16.5C17.0523 7 17.5 7.44772 17.5 8V12M2.5 20L5.91857 19.2403M5.91857 19.2403L6.78307 19.0482C6.92595 19.0165 7.07405 19.0165 7.21693 19.0482L11.2831 19.9518C11.4259 19.9835 11.5741 19.9835 11.7169 19.9518L15.7831 19.0482C15.9259 19.0165 16.0741 19.0165 16.2169 19.0482L17.0814 19.2403M5.91857 19.2403C4.56195 17.3788 3.95753 15.8262 3.62779 13.8769C3.54343 13.3782 3.86902 12.9077 4.35968 12.7851L11.2575 11.0606C11.4167 11.0208 11.5833 11.0208 11.7425 11.0606L18.6403 12.7851C19.131 12.9077 19.4566 13.3782 19.3722 13.8769C19.0425 15.8262 18.4381 17.3788 17.0814 19.2403M17.0814 19.2403L20.5 20M9.5 7V3H13.5V7"
  />
</svg>
