<svg xmlns="http://www.w3.org/2000/svg" width="16" height="16" fill="none" viewBox="0 0 16 16">
  <path
    stroke="currentColor"
    stroke-linecap="round"
    stroke-linejoin="round"
    stroke-width="1.5"
    d="M3.8335 8.50016V5.16683C3.8335 4.79864 4.13197 4.50016 4.50016 4.50016H11.5002C11.8684 4.50016 12.1668 4.79864 12.1668 5.16683V8.50016M1.8335 13.5002L4.17585 12.9937M4.17585 12.9937L4.77594 12.864C4.86879 12.8439 4.96487 12.8439 5.05772 12.864L7.85927 13.4697C7.95213 13.4898 8.0482 13.4898 8.14105 13.4697L10.9426 12.864C11.0355 12.8439 11.1315 12.8439 11.2244 12.864L11.8245 12.9937M4.17585 12.9937C3.24761 11.7544 2.83333 10.7205 2.60719 9.42353C2.54884 9.08892 2.76835 8.77277 3.09839 8.69249L7.8426 7.53849C7.94613 7.51331 8.05419 7.51331 8.15773 7.53849L12.9019 8.69249C13.232 8.77277 13.4515 9.08892 13.3931 9.42353C13.167 10.7205 12.7527 11.7544 11.8245 12.9937M11.8245 12.9937L14.1668 13.5002M6.50016 4.50016V2.50016C6.50016 2.13197 6.79864 1.8335 7.16683 1.8335H8.8335C9.20169 1.8335 9.50016 2.13197 9.50016 2.50016V4.50016"
  />
</svg>
