<svg width="24" height="24" viewBox="0 0 24 24" fill="none" xmlns="http://www.w3.org/2000/svg">
<path d="M4 9.26215C4 8.98238 4 8.8425 4.03531 8.71316C4.0666 8.59858 4.11805 8.49049 4.18725 8.39395C4.26536 8.28499 4.37392 8.19678 4.59105 8.02036L10.9911 2.82036C11.3507 2.52814 11.5305 2.38204 11.7304 2.32608C11.9068 2.27672 12.0932 2.27672 12.2696 2.32608C12.4695 2.38204 12.6493 2.52814 13.0089 2.82036L19.4089 8.02036C19.6261 8.19678 19.7346 8.28499 19.8128 8.39395C19.882 8.49049 19.9334 8.59858 19.9647 8.71316C20 8.8425 20 8.98238 20 9.26214V18.4006C20 18.9606 20 19.2407 19.891 19.4546C19.7951 19.6427 19.6422 19.7957 19.454 19.8916C19.2401 20.0006 18.9601 20.0006 18.4 20.0006H5.6C5.03995 20.0006 4.75992 20.0006 4.54601 19.8916C4.35785 19.7957 4.20487 19.6427 4.10899 19.4546C4 19.2407 4 18.9606 4 18.4006V9.26215Z" stroke="#12100F" stroke-width="2" stroke-linejoin="round"/>
</svg>
