<svg width="24" height="24" viewBox="0 0 24 24" fill="none" xmlns="http://www.w3.org/2000/svg">
  <path
    d="M10.8211 5.56948V11.998M10.8211 5.56948H8.24963M10.8211 5.56948H17.0353C18.8105 5.56948 20.2496 7.00856 20.2496 8.78376C20.2496 10.559 18.8105 11.998 17.0353 11.998M10.8211 11.998V18.4266M10.8211 11.998H17.0353M10.8211 18.4266H8.24963M10.8211 18.4266H17.0353C18.8105 18.4266 20.2496 16.9875 20.2496 15.2123C20.2496 13.4371 18.8105 11.998 17.0353 11.998M14.6782 2.99805V5.56948M14.6782 18.4266V20.998"
    stroke="currentColor" stroke-width="2" stroke-linecap="round" stroke-linejoin="round" />
  <path
    d="M7.81749 9H3.94296C3.11449 9 2.44287 9.67161 2.44287 10.5001C2.44287 11.3286 3.11448 12.0002 3.94296 12.0002H6.31749C7.14592 12.0002 7.81749 12.6718 7.81749 13.5002C7.81749 14.3286 7.14592 15.0002 6.31749 15.0002H2.44287"
    stroke="currentColor" stroke-width="2" stroke-linecap="round" stroke-linejoin="round" />
</svg>

