<svg width="16" height="16" viewBox="0 0 16 16" fill="none" xmlns="http://www.w3.org/2000/svg">
<path d="M4.58496 5.16667C4.58496 5.58088 4.92075 5.91667 5.33496 5.91667C5.74917 5.91667 6.08496 5.58088 6.08496 5.16667H5.33496H4.58496ZM9.91829 5.16667C9.91829 5.58088 10.2541 5.91667 10.6683 5.91667C11.0825 5.91667 11.4183 5.58088 11.4183 5.16667H10.6683H9.91829ZM11.4168 4.83333V4.08333H9.91683V4.83333H10.6668H11.4168ZM9.91683 13.5V14.25H11.4168V13.5H10.6668H9.91683ZM6.0835 4.83333V4.08333H4.5835V4.83333H5.3335H6.0835ZM4.5835 13.5V14.25H6.0835V13.5H5.3335H4.5835ZM13.5002 13.5V12.75H2.50016V13.5V14.25H13.5002V13.5ZM2.50016 5.16667V5.91667H13.5002V5.16667V4.41667H2.50016V5.16667ZM14.1668 5.83333H13.4168V12.8333H14.1668H14.9168V5.83333H14.1668ZM1.8335 12.8333H2.5835V5.83333H1.8335H1.0835V12.8333H1.8335ZM13.5002 5.16667V5.91667C13.4541 5.91667 13.4168 5.87936 13.4168 5.83333H14.1668H14.9168C14.9168 5.05093 14.2826 4.41667 13.5002 4.41667V5.16667ZM2.50016 5.16667V4.41667C1.71776 4.41667 1.0835 5.05093 1.0835 5.83333H1.8335H2.5835C2.5835 5.87936 2.54619 5.91667 2.50016 5.91667V5.16667ZM2.50016 13.5V12.75C2.54619 12.75 2.5835 12.7873 2.5835 12.8333H1.8335H1.0835C1.0835 13.6157 1.71776 14.25 2.50016 14.25V13.5ZM13.5002 13.5V14.25C14.2826 14.25 14.9168 13.6157 14.9168 12.8333H14.1668H13.4168C13.4168 12.7873 13.4541 12.75 13.5002 12.75V13.5ZM5.33496 5.16667H6.08496V3.16667H5.33496H4.58496V5.16667H5.33496ZM6.00163 2.5V3.25H10.0016V2.5V1.75H6.00163V2.5ZM10.6683 3.16667H9.91829V5.16667H10.6683H11.4183V3.16667H10.6683ZM10.0016 2.5V3.25C9.9556 3.25 9.91829 3.21269 9.91829 3.16667H10.6683H11.4183C11.4183 2.38426 10.784 1.75 10.0016 1.75V2.5ZM5.33496 3.16667H6.08496C6.08496 3.21269 6.04765 3.25 6.00163 3.25V2.5V1.75C5.21922 1.75 4.58496 2.38426 4.58496 3.16667H5.33496ZM10.6668 4.83333H9.91683V13.5H10.6668H11.4168V4.83333H10.6668ZM5.3335 4.83333H4.5835V13.5H5.3335H6.0835V4.83333H5.3335Z" fill="black"/>
</svg>
