<svg width="40" height="40" viewBox="0 0 40 40" fill="none" xmlns="http://www.w3.org/2000/svg">
<path d="M0 2C0 0.895431 0.895431 0 2 0H38C39.1046 0 40 0.895431 40 2V38C40 39.1046 39.1046 40 38 40H2C0.895431 40 0 39.1046 0 38V2Z" fill="#030018"/>
<path d="M20.4736 19.9998L21.7532 21.3419L23.0327 19.9998L21.7532 18.6577L20.4736 19.9998Z" fill="#FC5101"/>
<path d="M21.1328 14.6458C22.0708 13.6597 22.3209 12.2696 21.7918 11.0189C21.4358 10.1867 20.8009 9.571 20.0072 9.2439C19.2183 9.56618 18.5833 10.1867 18.2226 11.0189C17.6838 12.2696 17.934 13.6645 18.8816 14.6458L20.0072 15.8292L21.1328 14.6458Z" fill="#FC5101"/>
<path d="M18.718 21.8374L19.9976 23.1795L21.2867 21.8374L19.9976 20.4954L18.718 21.8374Z" fill="#FC5101"/>
<path d="M22.4122 10.7494C23.0568 12.2502 22.7538 13.929 21.6234 15.1123L20.4785 16.3197L21.758 17.6618L24.625 14.6554C25.5678 13.6693 25.8227 12.2695 25.284 11.0188C24.8174 9.92687 23.8698 9.20051 22.7297 9.02734H21.0317C21.6282 9.44584 22.1092 10.0327 22.4171 10.7494H22.4122Z" fill="#FC5101"/>
<path d="M25.8999 10.7544C26.5493 12.2648 26.2414 13.9436 25.111 15.1318L22.2249 18.1574L23.5044 19.4995L27.8673 14.9249C28.8534 13.8907 29.118 12.4284 28.5504 11.1152C28.0597 9.97514 27.0592 9.2055 25.871 9.02271H24.5097C25.111 9.4412 25.592 10.0281 25.8999 10.7496V10.7544Z" fill="#FC5101"/>
<path d="M14.7255 11.0286C14.1867 12.2889 14.4369 13.679 15.3845 14.6651L18.2514 17.6716L19.531 16.3295L18.3861 15.1221C17.2557 13.934 16.9527 12.26 17.5972 10.7592C17.9051 10.0473 18.3861 9.46041 18.9826 9.03711H17.2846C16.1542 9.21028 15.2017 9.94625 14.7303 11.0286H14.7255Z" fill="#FC5101"/>
<path d="M18.2513 18.6577L16.9622 19.9998L18.2513 21.3419L19.5308 19.9998L18.2513 18.6577Z" fill="#FC5101"/>
<path d="M21.2867 18.1624L19.9976 16.8203L18.718 18.1624L19.9976 19.5044L21.2867 18.1624Z" fill="#FC5101"/>
<path d="M25.2696 28.9709C25.8083 27.7106 25.5582 26.3204 24.6106 25.3343L21.7436 22.3279L20.4641 23.6699L21.609 24.8821C22.7394 26.0703 23.0424 27.7443 22.3978 29.2451C22.09 29.957 21.609 30.5438 21.0125 30.9671H22.7105C23.8409 30.794 24.7934 30.058 25.2648 28.9757L25.2696 28.9709Z" fill="#FC5101"/>
<path d="M28.555 28.8797C29.1226 27.5665 28.8532 26.1041 27.8719 25.0699L23.509 20.4954L22.2295 21.8374L25.1157 24.8631C26.2461 26.0512 26.5491 27.73 25.9045 29.2404C25.5967 29.962 25.1157 30.5488 24.5144 30.9673H25.8757C27.0638 30.7845 28.0644 30.0245 28.555 28.8749V28.8797Z" fill="#FC5101"/>
<path d="M18.8721 25.3535C17.9341 26.3396 17.684 27.7298 18.2131 28.9804C18.5691 29.8126 19.204 30.4283 19.9977 30.7554C20.7866 30.4331 21.4264 29.8126 21.7823 28.9804C22.3211 27.7298 22.0709 26.3348 21.1233 25.3535L19.9977 24.1702L18.8721 25.3535Z" fill="#FC5101"/>
<path d="M14.105 29.2451C13.4557 27.7347 13.7635 26.0559 14.8939 24.8677L17.7801 21.8421L16.5006 20.5L12.1376 25.0746C11.1515 26.1088 10.887 27.5711 11.4546 28.8843C11.9452 30.0243 12.9458 30.794 14.1339 30.9768H15.4952C14.8939 30.5583 14.4129 29.9714 14.105 29.2499V29.2451Z" fill="#FC5101"/>
<path d="M11.4449 11.1201C10.8773 12.4333 11.1467 13.8957 12.128 14.9299L16.4909 19.5044L17.7704 18.1624L14.8842 15.1367C13.7538 13.9486 13.4508 12.2698 14.0954 10.7594C14.4032 10.0378 14.8842 9.45096 15.4855 9.03247H14.1242C12.9361 9.21526 11.9355 9.97528 11.4449 11.1249V11.1201Z" fill="#FC5101"/>
<path d="M17.5924 29.2499C16.9479 27.7491 17.2509 26.0703 18.3813 24.887L19.5262 23.6748L18.2466 22.3328L15.3797 25.3392C14.4369 26.3253 14.1819 27.7251 14.7207 28.9758C15.1873 30.0677 16.1349 30.794 17.275 30.9672H18.973C18.3765 30.5487 17.8955 29.9619 17.5876 29.2451L17.5924 29.2499Z" fill="#FC5101"/>
</svg>
