<svg width="40" height="40" viewBox="0 0 40 40" fill="none" xmlns="http://www.w3.org/2000/svg">
<g clip-path="url(#clip0_18854_361)">
<g clip-path="url(#clip1_18854_361)">
<path d="M40 0H0V40H40V0Z" fill="black"/>
<path fill-rule="evenodd" clip-rule="evenodd" d="M21.92 8.47974C17.6785 8.47974 14.24 11.9182 14.24 16.1597H29.6V12.3213C27.4798 12.3196 25.7616 10.6003 25.7616 8.47974H21.92ZM24.673 11.4889C24.673 11.9486 24.3004 12.3213 23.8407 12.3213C23.381 12.3213 23.0084 11.9486 23.0084 11.4889C23.0084 11.0293 23.381 10.6566 23.8407 10.6566C24.3004 10.6566 24.673 11.0293 24.673 11.4889Z" fill="white"/>
<path d="M25.7629 23.8432C25.7629 19.6017 22.3245 16.1632 18.0829 16.1632V23.8402H18.0799C18.0799 19.5986 14.6414 16.1602 10.3999 16.1602V23.8402H18.0799L10.3999 31.5202H18.0799C22.3205 31.5202 25.7582 28.0834 25.7599 23.8432H25.7629Z" fill="white"/>
</g>
<path d="M2 0.5H38C38.8284 0.5 39.5 1.17157 39.5 2V38C39.5 38.8284 38.8284 39.5 38 39.5H2C1.17157 39.5 0.5 38.8284 0.5 38V2C0.5 1.17157 1.17157 0.5 2 0.5Z" stroke="#12100F" stroke-opacity="0.1"/>
</g>
<defs>
<clipPath id="clip0_18854_361">
<path d="M0 2C0 0.895431 0.895431 0 2 0H38C39.1046 0 40 0.895431 40 2V38C40 39.1046 39.1046 40 38 40H2C0.895431 40 0 39.1046 0 38V2Z" fill="white"/>
</clipPath>
<clipPath id="clip1_18854_361">
<path d="M0 2C0 0.895431 0.895431 0 2 0H38C39.1046 0 40 0.895431 40 2V38C40 39.1046 39.1046 40 38 40H2C0.895431 40 0 39.1046 0 38V2Z" fill="white"/>
</clipPath>
</defs>
</svg>
