<svg width="40" height="40" viewBox="0 0 40 40" fill="none" xmlns="http://www.w3.org/2000/svg">
<path d="M0 2C0 0.895431 0.895431 0 2 0H38C39.1046 0 40 0.895431 40 2V38C40 39.1046 39.1046 40 38 40H2C0.895431 40 0 39.1046 0 38V2Z" fill="url(#paint0_radial_18847_367)"/>
<path d="M27.8377 26.7887C28.1583 26.4187 28.4524 26.0266 28.718 25.6154L23.1005 19.9992L28.718 14.3823C28.4523 13.9714 28.1581 13.5795 27.8377 13.2096L21.0474 19.9992L27.8377 26.7887ZM29.4564 15.7385C29.6768 16.2267 29.8586 16.7313 30 17.2479L27.2484 19.9992L30 22.7504C29.8585 23.2669 29.6767 23.7716 29.4564 24.2598L25.1953 19.9992L29.4564 15.7385ZM19.9997 21.0484L26.79 27.838C26.4204 28.1588 26.0285 28.4529 25.6172 28.7181L19.9997 23.1013L14.3828 28.7181C13.9715 28.4529 13.5796 28.1588 13.21 27.838L19.9997 21.0484ZM15.7386 29.4571L20.0003 25.1959L24.2614 29.4565C23.7731 29.6767 23.2684 29.8584 22.7518 30L20.0003 27.2488L17.2482 30C16.7316 29.8576 16.2269 29.6753 15.7386 29.4548V29.4571ZM19.9997 18.9516L13.21 12.162C13.5797 11.8416 13.9717 11.5477 14.3828 11.2825L19.9997 16.8987L25.6172 11.2825C26.0283 11.5477 26.4203 11.8416 26.79 12.162L19.9997 18.9516ZM10.5436 24.2598C10.3232 23.7716 10.1414 23.2669 10 22.7504L12.7516 19.9992L10 17.2479C10.1415 16.7312 10.3232 16.2263 10.5436 15.738L14.8047 19.9992L10.5436 24.2598ZM16.8995 19.9992L11.282 14.3823C11.5476 13.9713 11.8417 13.5794 12.1623 13.2096L18.9503 19.9992L12.16 26.7887C11.8395 26.4187 11.5453 26.0266 11.2797 25.6154L16.8995 19.9992ZM20.0003 14.8041L15.7386 10.5435C16.2269 10.3233 16.7316 10.1416 17.2482 10L20.0003 12.7512L22.7518 10C23.2683 10.1419 23.773 10.3236 24.2614 10.5435L20.0003 14.8041Z" fill="white"/>
<defs>
<radialGradient id="paint0_radial_18847_367" cx="0" cy="0" r="1" gradientUnits="userSpaceOnUse" gradientTransform="translate(43.5266 40.0846) scale(58.8883 58.8816)">
<stop stop-color="#02E1B3"/>
<stop offset="0.35" stop-color="#0B54FF"/>
<stop offset="0.43" stop-color="#1152FF"/>
<stop offset="0.54" stop-color="#204BFF"/>
<stop offset="0.66" stop-color="#3B40FE"/>
<stop offset="0.8" stop-color="#5F31FE"/>
<stop offset="0.93" stop-color="#8E1EFD"/>
<stop offset="1" stop-color="#A714FD"/>
</radialGradient>
</defs>
</svg>
