<svg width="40" height="40" viewBox="0 0 40 40" fill="none" xmlns="http://www.w3.org/2000/svg">
<path d="M0 2C0 0.895431 0.895431 0 2 0H38C39.1046 0 40 0.895431 40 2V38C40 39.1046 39.1046 40 38 40H2C0.895431 40 0 39.1046 0 38V2Z" fill="#FF6702"/>
<path d="M31.4169 15.4644C30.6869 14.5338 29.5817 14 28.384 14H10.8167C9.61903 14 8.51301 14.5338 7.78387 15.4644C7.06236 16.3843 6.82469 17.5515 7.13027 18.6656C7.75246 20.9286 9.01127 22.9783 10.7717 24.5938C13.2469 26.8652 16.4232 28 19.5995 28C22.7758 28 25.9522 26.8643 28.4273 24.5938C30.1878 22.9791 31.4466 20.9286 32.0688 18.6656C32.3761 17.5515 32.1376 16.3843 31.4169 15.4644ZM11.0858 20.6779C10.5358 19.8378 10.1164 18.9204 9.84991 17.9508C9.74466 17.5664 9.91018 17.2775 10.0188 17.1397C10.2115 16.894 10.5027 16.7537 10.8176 16.7537H15.4165C15.7068 16.7537 15.852 17.0965 15.6465 17.2974L12.0891 20.7767C11.798 21.0606 11.3073 21.0166 11.0858 20.6779ZM18.193 24.3896C18.193 24.7914 17.8145 25.1002 17.413 25.0139C16.2815 24.7698 15.1856 24.3348 14.1798 23.7088C13.8318 23.4922 13.7859 23.0115 14.0779 22.7268L17.637 19.2442C17.8425 19.0433 18.193 19.1852 18.193 19.4692V24.3896ZM19.6004 18.1633C18.6862 18.1633 17.9452 17.4386 17.9452 16.5445C17.9452 15.6504 18.6862 14.9256 19.6004 14.9256C20.5146 14.9256 21.2556 15.6504 21.2556 16.5445C21.2556 17.4386 20.5146 18.1633 19.6004 18.1633ZM25.0218 23.7088C24.0151 24.3356 22.9193 24.7706 21.7878 25.0147C21.3863 25.101 21.0077 24.7931 21.0077 24.3904V19.47C21.0077 19.1861 21.3583 19.0441 21.5637 19.245L25.1237 22.7268C25.4148 23.0115 25.369 23.4922 25.0218 23.7088ZM29.3509 17.9508C29.0843 18.9196 28.665 19.8369 28.115 20.6779C27.8934 21.0166 27.4028 21.0606 27.1117 20.7767L23.5542 17.2974C23.3488 17.0965 23.494 16.7537 23.7843 16.7537H28.3832C28.6981 16.7537 28.9893 16.8948 29.1819 17.1397C29.2906 17.2783 29.4561 17.5672 29.3509 17.9508Z" fill="white"/>
</svg>
