<svg width="40" height="40" viewBox="0 0 40 40" fill="none" xmlns="http://www.w3.org/2000/svg">
<g clip-path="url(#clip0_18847_380)">
<path d="M0 2C0 0.895431 0.895431 0 2 0H38C39.1046 0 40 0.895431 40 2V38C40 39.1046 39.1046 40 38 40H2C0.895431 40 0 39.1046 0 38V2Z" fill="#F5F1ED"/>
<g clip-path="url(#clip1_18847_380)">
<path d="M-0.683551 32.7441H22.7958C23.5107 32.7441 23.9453 31.9565 23.5643 31.3517L0.0848664 -5.9122C-0.40065 -6.68276 -1.5918 -6.3388 -1.5918 -5.42803V31.8359C-1.5918 32.3375 -1.18516 32.7441 -0.683551 32.7441Z" fill="#FFBBE4"/>
<path fill-rule="evenodd" clip-rule="evenodd" d="M-0.683516 -5.42783V31.8361H22.7959L-0.683516 -5.42783ZM-2.5 -5.42783C-2.5 -7.24938 -0.117702 -7.93731 0.853332 -6.39618L24.3327 30.8678C25.0948 32.0774 24.2256 33.6526 22.7959 33.6526H-0.683516C-1.68673 33.6526 -2.5 32.8393 -2.5 31.8361V-5.42783Z" fill="#FFBBE4"/>
<path d="M40.4035 32.486L40.3641 22.6933C40.3639 22.6551 40.3194 22.6341 40.2899 22.6583L28.1437 32.6076C28.1107 32.6345 28.1297 32.6881 28.1723 32.6881L40.176 32.7139C40.3019 32.7142 40.404 32.6119 40.4035 32.486Z" fill="#FF8AA1"/>
<path fill-rule="evenodd" clip-rule="evenodd" d="M30.5809 31.7847L39.4923 31.804L39.463 24.5093L30.5809 31.7847ZM28.1703 33.5961C27.2754 33.5941 26.8757 32.4719 27.568 31.9048L39.7142 21.9555C40.3354 21.4467 41.2689 21.8864 41.2721 22.6894L41.3117 32.4821C41.3142 33.1117 40.8037 33.6232 40.1739 33.622L28.1703 33.5961Z" fill="#FF8AA1"/>
<path d="M4.55902 -6.71435C4.46979 -6.71435 4.41543 -6.61613 4.46283 -6.54052L26.4628 28.554C26.535 28.6694 26.6918 28.6955 26.7977 28.6102L40.2095 17.7813C40.3163 17.6951 40.3783 17.5651 40.3783 17.4279V-4.44375C40.3783 -5.69777 39.3617 -6.71436 38.1077 -6.71436L4.55902 -6.71435Z" fill="#5A7BBB"/>
<path fill-rule="evenodd" clip-rule="evenodd" d="M4.55857 -7.62255C3.75542 -7.62255 3.26625 -6.73859 3.69283 -6.05808L25.6928 29.0365C26.0542 29.6131 26.8383 29.7443 27.3679 29.3169L40.7795 18.488C41.0998 18.2293 41.2861 17.8397 41.2861 17.4279V-4.44372C41.2861 -6.19934 39.8628 -7.62256 38.1072 -7.62256L4.55857 -7.62255ZM5.9947 -5.80607L38.1072 -5.80608C38.8597 -5.80608 39.4696 -5.19614 39.4696 -4.44372V17.211L26.824 27.4212L5.9947 -5.80607Z" fill="#5A7BBB"/>
<path d="M-1.5918 37.481C-1.5918 36.9794 -1.18516 36.5728 -0.683562 36.5728H25.4239H39.4968C39.9984 36.5728 40.405 36.9794 40.405 37.481V45.201C40.405 45.7026 39.9984 46.1092 39.4968 46.1092H-0.683562C-1.18516 46.1092 -1.5918 45.7026 -1.5918 45.201V37.481Z" fill="#484843"/>
<path fill-rule="evenodd" clip-rule="evenodd" d="M-2.5 37.4813C-2.5 36.4781 -1.68673 35.6648 -0.683522 35.6648H39.4968C40.5 35.6648 41.3132 36.4781 41.3132 37.4813V45.2013C41.3132 46.2045 40.5 47.0178 39.4968 47.0178H-0.683522C-1.68673 47.0178 -2.5 46.2045 -2.5 45.2013V37.4813ZM-0.683522 37.4813V45.2013H39.4968V37.4813H-0.683522Z" fill="#484843"/>
</g>
</g>
<defs>
<clipPath id="clip0_18847_380">
<path d="M0 2C0 0.895431 0.895431 0 2 0H38C39.1046 0 40 0.895431 40 2V38C40 39.1046 39.1046 40 38 40H2C0.895431 40 0 39.1046 0 38V2Z" fill="white"/>
</clipPath>
<clipPath id="clip1_18847_380">
<rect width="43.88" height="54.6404" fill="white" transform="translate(-2.5 -7.62256)"/>
</clipPath>
</defs>
</svg>
