<svg width="40" height="40" viewBox="0 0 40 40" fill="none" xmlns="http://www.w3.org/2000/svg">
<path d="M0 2C0 0.895431 0.895431 0 2 0H38C39.1046 0 40 0.895431 40 2V38C40 39.1046 39.1046 40 38 40H2C0.895431 40 0 39.1046 0 38V2Z" fill="#F78116"/>
<path fill-rule="evenodd" clip-rule="evenodd" d="M18.3684 10.8062H15.0113V14.4342H11.6543V26.0643H15.0114V22.4362H18.3684V26.0643H21.7256V14.4342H18.3684V10.8062ZM8.29712 17.6761H11.6543V29.3062H8.29712V17.6761ZM25.083 17.6761H21.7258V29.3062H25.083V17.6761ZM28.4402 22.4362H31.7971V10.8062H28.4399V14.4342H25.083V26.0643H28.4402V22.4362Z" fill="#E3DED3"/>
</svg>
