<svg width="40" height="40" viewBox="0 0 40 40" fill="none" xmlns="http://www.w3.org/2000/svg">
<path d="M0 2C0 0.895431 0.895431 0 2 0H38C39.1046 0 40 0.895431 40 2V38C40 39.1046 39.1046 40 38 40H2C0.895431 40 0 39.1046 0 38V2Z" fill="#111420"/>
<g clip-path="url(#clip0_18915_1035)">
<path d="M31.8734 31.4891V27.1436C31.8734 26.9713 31.805 26.807 31.6829 26.6849L13.1933 8.19521C13.0712 8.07311 12.9068 8.00464 12.7345 8.00464H8.38912C8.17459 8.00464 8 8.17923 8 8.39376V12.4311C8 12.6034 8.06847 12.7677 8.19057 12.8898L14.8274 19.5266C14.9791 19.6784 14.9791 19.9249 14.8274 20.0767L8.11411 26.7899C8.04108 26.8629 8 26.9622 8 27.0649V31.4891C8 31.7035 8.17459 31.8783 8.38912 31.8783H15.6501C15.8646 31.8783 16.0392 31.7035 16.0392 31.4891V28.8827C16.0392 28.78 16.0803 28.6807 16.1534 28.6077L19.7547 25.0063C19.9065 24.8545 20.153 24.8545 20.3048 25.0063L26.9872 31.6888C27.1093 31.8109 27.2736 31.8794 27.4459 31.8794H31.4832C31.6978 31.8794 31.8723 31.7047 31.8723 31.4903L31.8734 31.4891Z" fill="white"/>
<path d="M22.1876 13.7592H25.8244C26.04 13.7592 26.2158 13.935 26.2158 14.1506V17.7874C26.2158 18.1366 26.638 18.3113 26.8845 18.0636L31.8734 13.0666C31.9464 12.9935 31.9877 12.8943 31.9877 12.7904V8.4142C31.9877 8.19853 31.8129 8.0228 31.5962 8.0228L27.1549 8.01709C27.0511 8.01709 26.9518 8.05817 26.8776 8.1312L21.9103 13.0905C21.6638 13.337 21.8384 13.7592 22.1865 13.7592H22.1876Z" fill="#EE7A30"/>
</g>
<defs>
<clipPath id="clip0_18915_1035">
<rect width="24" height="24" fill="white" transform="translate(8 8)"/>
</clipPath>
</defs>
</svg>
