<svg width="40" height="40" viewBox="0 0 40 40" fill="none" xmlns="http://www.w3.org/2000/svg">
<path d="M0 2C0 0.895431 0.895431 0 2 0H38C39.1046 0 40 0.895431 40 2V38C40 39.1046 39.1046 40 38 40H2C0.895431 40 0 39.1046 0 38V2Z" fill="#1C3830"/>
<path d="M28.0328 16.1286L27.2508 15.5188C26.3415 14.8095 25.2213 14.4253 24.069 14.4253H13.543V10H24.068C26.205 10 28.2811 10.7134 29.9671 12.0273L30.7481 12.6362L28.0328 16.1276V16.1286Z" fill="#7BF178"/>
<path d="M22.1456 29.9992H15.2524C13.1153 29.9992 11.0393 29.2857 9.35324 27.9718L8.57227 27.363L11.2876 23.8716L12.0696 24.4804C12.9798 25.1897 14.1001 25.5748 15.2535 25.5748H22.1467V30.0002L22.1456 29.9992Z" fill="#7BF178"/>
<path d="M23.6492 17.7884H16.9018C15.0492 17.7884 13.5421 16.2797 13.5421 14.4253H9.12109C9.12109 18.7192 12.6111 22.2127 16.9008 22.2127H23.6482C25.5008 22.2127 27.0079 23.7212 27.0079 25.5757H31.4289C31.4289 21.2818 27.9389 17.7884 23.6492 17.7884Z" fill="#7BF178"/>
</svg>
