<svg width="40" height="40" viewBox="0 0 40 40" fill="none" xmlns="http://www.w3.org/2000/svg">
<path d="M0 2C0 0.895431 0.895431 0 2 0H38C39.1046 0 40 0.895431 40 2V38C40 39.1046 39.1046 40 38 40H2C0.895431 40 0 39.1046 0 38V2Z" fill="#12100F"/>
<path d="M22.9387 17.2078C24.751 16.9241 27.3719 14.9951 27.3719 13.4915C27.3719 13.0376 27.0094 12.7256 26.4797 12.7256C25.4759 12.7256 23.7751 14.2575 22.9387 17.2078ZM14.5463 24.6688C12.1764 24.6688 11.9812 27.0518 14.3512 27.0518C15.4107 27.0518 16.6932 26.6263 17.3624 25.8603C16.3865 25.0092 15.578 24.6688 14.5463 24.6688ZM29.6303 23.6475C29.7697 27.6475 27.7622 29.8887 24.3607 29.8887C22.3532 29.8887 21.3494 29.1227 19.2026 27.7043C18.0873 28.9525 15.9683 29.8887 14.2118 29.8887C8.16145 29.8887 8.41238 22.0873 14.5742 22.0873C15.8568 22.0873 16.9442 22.4277 18.3382 23.3071L19.2583 20.0447C15.4664 18.9951 13.5705 16.0447 15.4385 11.8177H18.4498C16.7769 14.6263 17.92 16.9525 20.039 17.2078C21.1822 13.0943 23.6357 9.88867 26.8979 9.88867C28.7381 9.88867 30.1879 11.1085 30.1879 13.3213C30.1879 16.8674 25.6153 19.761 22.158 20.0447L20.736 25.1227C22.3532 27.0234 26.8421 28.8674 26.8421 23.6475H29.6303Z" fill="white"/>
</svg>
